# xmcd
#
# Track frame offsets: 
#        150
#        28785
#        46955
#        70705
#        91080
#        107092
#        127629
#        144417
#        161717
#        178742
#        196417
#        214555
#        228355
#
# Disc length: 3380 seconds
#
# Revision: 10
# Processed by: cddbd v1.5.2PL0 Copyright (c) Steve Scherf et al.
# Submitted via: ExactAudioCopyFreeDBPlugin 1.0
#
DISCID=a70d320d
DTITLE=NOKKO - the best of Nokko
DYEAR=1997
DGENRE=JPop
TTITLE0=CRAZY CLOUDS
TTITLE1=奇跡のウェディングマーチ
TTITLE2=I Will Catch U
TTITLE3=7 Ways To Love
TTITLE4=人魚
TTITLE5=ライブがはねたら (あいしてる Version)
TTITLE6=アンテナ
TTITLE7=パレード
TTITLE8=天使のラブソング
TTITLE9=ナチュラル
TTITLE10=ベルベット
TTITLE11=恋はあせらず
TTITLE12=GO GO HAPPY DAY (Single Version)
EXTD=YEAR: 1997
EXTT0=
EXTT1=
EXTT2=
EXTT3=
EXTT4=
EXTT5=
EXTT6=
EXTT7=
EXTT8=
EXTT9=
EXTT10=
EXTT11=
EXTT12=
PLAYORDER=
